<svg width="24" height="24" viewBox="0 0 24 24" fill="none" xmlns="http://www.w3.org/2000/svg">
<path d="M8.49814 2.84291H5.96179C3.98649 2.84291 2.57017 4.71279 3.20242 6.5866C4.46612 10.3317 6.16547 13.6495 8.37964 15.8637C10.5938 18.0779 13.9117 19.7773 17.6568 21.0409C19.5305 21.6732 21.4004 20.2569 21.4004 18.2815V15.7448C21.4004 15.0187 21.0069 14.3497 20.3723 13.9968L18.1626 12.7683L18.0024 12.6884C17.4593 12.4472 16.8333 12.459 16.2963 12.7275L14.275 13.737L14.227 13.722C14.1472 13.696 14.0574 13.6647 13.9593 13.6276C13.4568 13.4378 12.9533 13.1727 12.4871 12.8232C12.2849 12.6715 12.0937 12.5067 11.9151 12.3282C11.7344 12.1474 11.5675 11.9536 11.4141 11.7483C11.0658 11.2822 10.8009 10.7788 10.6105 10.2763L10.5157 10.0084L10.5 9.959L11.5102 7.94075C11.8053 7.35053 11.7903 6.65262 11.47 6.0756L10.2468 3.87217C9.89405 3.23692 9.22466 2.84291 8.49814 2.84291ZM5.96179 4.84291H8.49816L9.72135 7.04627L8.54291 9.40319C8.44428 9.60047 8.41363 9.82482 8.45574 10.0413C8.60343 10.8006 9.00884 11.8709 9.81208 12.9456C10.0217 13.2261 10.251 13.4925 10.5009 13.7424C10.7479 13.9893 11.0108 14.216 11.2874 14.4234C12.3645 15.2309 13.4373 15.6362 14.1987 15.7822C14.4145 15.8236 14.6378 15.7928 14.8343 15.6945L17.1908 14.5163L19.4004 15.7448V18.2815C19.4004 18.9141 18.8484 19.3322 18.2962 19.1459C14.8184 17.9724 11.7401 16.3958 9.79386 14.4495C7.8476 12.5032 6.27095 9.42497 5.09745 5.94718C4.91113 5.39498 5.32929 4.84291 5.96179 4.84291Z" fill="#6FCF97"/>
</svg>
